/* XPM */
static char * bitcoin64_xpm[] = {
"64 64 435 2",
"  	c None",
". 	c #717171",
"+ 	c #838383",
"@ 	c #8E8E8E",
"# 	c #959595",
"$ 	c #909090",
"% 	c #868686",
"& 	c #767676",
"* 	c #6D6D6D",
"= 	c #9E9E9E",
"- 	c #C6C6C6",
"; 	c #E3E3E3",
"> 	c #F5F5F5",
", 	c #FEFEFE",
"' 	c #FFFFFF",
") 	c #F8F8F8",
"! 	c #E9E9E9",
"~ 	c #CECECE",
"{ 	c #A9A9A9",
"] 	c #7A7A7A",
"^ 	c #616161",
"/ 	c #ACACAC",
"( 	c #E2E2E2",
"_ 	c #E8E8E8",
": 	c #E0E0E0",
"< 	c #DFDFDF",
"[ 	c #E1E1E1",
"} 	c #E6E6E6",
"| 	c #F1F1F1",
"1 	c #EDEDED",
"2 	c #BCBCBC",
"3 	c #747474",
"4 	c #727272",
"5 	c #CBCBCB",
"6 	c #EAEAEA",
"7 	c #DEDEDE",
"8 	c #DCDCDC",
"9 	c #FDFDFD",
"0 	c #8B8B8B",
"a 	c #CFCFCF",
"b 	c #DDDDDD",
"c 	c #DBDBDB",
"d 	c #E0E1E1",
"e 	c #FBFCFB",
"f 	c #FDFEFE",
"g 	c #F2F2F2",
"h 	c #E5E5E5",
"i 	c #7F7F7F",
"j 	c #AFAFAF",
"k 	c #FAFAFA",
"l 	c #EEEFEF",
"m 	c #F9FAFA",
"n 	c #F8F9F8",
"o 	c #FBFBFB",
"p 	c #F2F3F3",
"q 	c #CFCECE",
"r 	c #B4B3B3",
"s 	c #9B999A",
"t 	c #7F7D7E",
"u 	c #4A4848",
"v 	c #4B4849",
"w 	c #E6E7E7",
"x 	c #CDCDCD",
"y 	c #494949",
"z 	c #585858",
"A 	c #EBECEC",
"B 	c #F5F6F5",
"C 	c #F7F7F7",
"D 	c #D4D3D3",
"E 	c #B7B7B7",
"F 	c #C0BFBF",
"G 	c #A6A4A5",
"H 	c #747272",
"I 	c #767374",
"J 	c #545152",
"K 	c #211D1E",
"L 	c #0F0B0C",
"M 	c #060102",
"N 	c #000000",
"O 	c #777576",
"P 	c #F6F6F6",
"Q 	c #FCFCFC",
"R 	c #818181",
"S 	c #848484",
"T 	c #D9D9D9",
"U 	c #E7E8E8",
"V 	c #F7F8F8",
"W 	c #ECEDED",
"X 	c #D9D8D8",
"Y 	c #C3C2C2",
"Z 	c #AAA9A9",
"` 	c #908E8F",
" .	c #757373",
"..	c #5B5859",
"+.	c #413D3E",
"@.	c #2A2626",
"#.	c #110D0E",
"$.	c #1D191A",
"%.	c #130F10",
"&.	c #090506",
"*.	c #0E090B",
"=.	c #050102",
"-.	c #171213",
";.	c #ACABAB",
">.	c #EBEBEB",
",.	c #A1A1A1",
"'.	c #EFEFEF",
").	c #BDBCBC",
"!.	c #9E9D9D",
"~.	c #7E7C7D",
"{.	c #605D5E",
"].	c #474344",
"^.	c #2F2B2C",
"/.	c #191516",
"(.	c #0A0506",
"_.	c #040001",
":.	c #0D090A",
"<.	c #161213",
"[.	c #1F1B1C",
"}.	c #252122",
"|.	c #201C1D",
"1.	c #272324",
"2.	c #5C595A",
"3.	c #625F60",
"4.	c #D8D7D7",
"5.	c #A8A8A8",
"6.	c #B6B5B5",
"7.	c #999797",
"8.	c #848283",
"9.	c #353233",
"0.	c #151112",
"a.	c #030000",
"b.	c #020000",
"c.	c #0B0608",
"d.	c #141011",
"e.	c #1C1819",
"f.	c #231F20",
"g.	c #151011",
"h.	c #6A6868",
"i.	c #D5D5D5",
"j.	c #D8D8D8",
"k.	c #B4B4B4",
"l.	c #ADADAD",
"m.	c #EEEEEE",
"n.	c #9F9F9F",
"o.	c #CACACA",
"p.	c #454242",
"q.	c #070204",
"r.	c #0C0809",
"s.	c #231E1F",
"t.	c #858383",
"u.	c #B0AEAF",
"v.	c #B0B0B0",
"w.	c #8D8D8D",
"x.	c #979797",
"y.	c #949494",
"z.	c #939393",
"A.	c #9D9D9D",
"B.	c #C3C3C3",
"C.	c #D0D0D0",
"D.	c #D6D6D6",
"E.	c #A6A6A6",
"F.	c #D4D4D4",
"G.	c #7D7A7B",
"H.	c #100C0D",
"I.	c #383536",
"J.	c #D3D2D3",
"K.	c #CBCCCB",
"L.	c #A7A7A7",
"M.	c #B3B3B3",
"N.	c #B1B1B1",
"O.	c #AEAEAE",
"P.	c #9A9A9A",
"Q.	c #B8B8B8",
"R.	c #595959",
"S.	c #ECECEC",
"T.	c #D2D2D2",
"U.	c #9C9C9C",
"V.	c #535051",
"W.	c #161112",
"X.	c #0E090A",
"Y.	c #0D080A",
"Z.	c #090406",
"`.	c #060103",
" +	c #242021",
".+	c #242122",
"++	c #F0F1F1",
"@+	c #919191",
"#+	c #B9B9B9",
"$+	c #BBBBBB",
"%+	c #929292",
"&+	c #ABABAB",
"*+	c #969696",
"=+	c #D7D7D7",
"-+	c #D8D9D8",
";+	c #ACABAC",
">+	c #908E8E",
",+	c #6C696A",
"'+	c #4C4849",
")+	c #4E4A4B",
"!+	c #363233",
"~+	c #3D393A",
"{+	c #9B9999",
"]+	c #787576",
"^+	c #181415",
"/+	c #211C1D",
"(+	c #050002",
"_+	c #676465",
":+	c #D6D7D6",
"<+	c #8F8F8F",
"[+	c #BABABA",
"}+	c #AAAAAA",
"|+	c #999999",
"1+	c #C7C7C7",
"2+	c #575757",
"3+	c #D3D3D3",
"4+	c #6A6A6A",
"5+	c #939493",
"6+	c #BFC0BF",
"7+	c #C5C5C5",
"8+	c #D0CFCF",
"9+	c #C5C4C5",
"0+	c #BCBDBD",
"a+	c #D7D7D6",
"b+	c #292526",
"c+	c #484446",
"d+	c #D9D9DA",
"e+	c #A6A7A7",
"f+	c #8C8C8C",
"g+	c #B2B2B2",
"h+	c #B5B5B5",
"i+	c #DADADA",
"j+	c #828282",
"k+	c #959696",
"l+	c #A0A1A1",
"m+	c #6F6F6F",
"n+	c #4E4B4C",
"o+	c #0D0809",
"p+	c #171314",
"q+	c #C1C1C1",
"r+	c #E7E7E7",
"s+	c #A4A4A4",
"t+	c #B6B6B6",
"u+	c #C4C4C4",
"v+	c #D1D1D1",
"w+	c #706D6E",
"x+	c #1E1A1B",
"y+	c #110C0D",
"z+	c #898989",
"A+	c #CFD0D0",
"B+	c #989797",
"C+	c #221E1F",
"D+	c #050001",
"E+	c #A19FA0",
"F+	c #A3A3A3",
"G+	c #E4E4E4",
"H+	c #B7B8B7",
"I+	c #B7B6B7",
"J+	c #1A1517",
"K+	c #221F1F",
"L+	c #010000",
"M+	c #8D8B8B",
"N+	c #A5A5A5",
"O+	c #CCCCCC",
"P+	c #C2C2C2",
"Q+	c #CBCACA",
"R+	c #3F3C3C",
"S+	c #120D0E",
"T+	c #7D7B7C",
"U+	c #5F5B5C",
"V+	c #070203",
"W+	c #716E6F",
"X+	c #8A8A8A",
"Y+	c #737071",
"Z+	c #696767",
"`+	c #F0F0F0",
" @	c #A0A0A0",
".@	c #626262",
"+@	c #D4D5D5",
"@@	c #7C7A7A",
"#@	c #656263",
"$@	c #9B9B9B",
"%@	c #797778",
"&@	c #A2A2A2",
"*@	c #F4F4F4",
"=@	c #C9C9C9",
"-@	c #989898",
";@	c #686566",
">@	c #040000",
",@	c #6D6B6C",
"'@	c #3F3B3C",
")@	c #7D7B7B",
"!@	c #686868",
"~@	c #B3B2B3",
"{@	c #060203",
"]@	c #989696",
"^@	c #858585",
"/@	c #D0D1D1",
"(@	c #D1D0D1",
"_@	c #BDBDBD",
":@	c #040101",
"<@	c #1A1516",
"[@	c #0F0A0B",
"}@	c #D4D4D3",
"|@	c #A5A4A5",
"1@	c #7E7C7C",
"2@	c #241F21",
"3@	c #262223",
"4@	c #5D5A5A",
"5@	c #878485",
"6@	c #282425",
"7@	c #B1B0B0",
"8@	c #E4E3E3",
"9@	c #FEFFFF",
"0@	c #E1E0E0",
"a@	c #727070",
"b@	c #373435",
"c@	c #C1C0C0",
"d@	c #5E5A5B",
"e@	c #332F30",
"f@	c #5F5C5D",
"g@	c #838181",
"h@	c #999798",
"i@	c #A09F9F",
"j@	c #969494",
"k@	c #747172",
"l@	c #2C2829",
"m@	c #1F1A1B",
"n@	c #5F5D5D",
"o@	c #F0EFEF",
"p@	c #BFBFBF",
"q@	c #757575",
"r@	c #9A9B9B",
"s@	c #ADACAC",
"t@	c #2D2A2A",
"u@	c #090405",
"v@	c #575455",
"w@	c #AFAEAF",
"x@	c #C0C0C0",
"y@	c #797979",
"z@	c #5C5C5C",
"A@	c #7E7B7C",
"B@	c #312E2F",
"C@	c #737171",
"D@	c #989697",
"E@	c #F1F2F2",
"F@	c #D5D6D6",
"G@	c #7B7B7B",
"H@	c #B2B3B3",
"I@	c #E5E6E6",
"J@	c #C5C4C4",
"K@	c #E3E2E2",
"L@	c #F4F5F5",
"M@	c #D3D4D4",
"N@	c #E8E9E9",
"O@	c #EAEBEA",
"P@	c #BDBEBD",
"Q@	c #B8B7B7",
"R@	c #504D4E",
"S@	c #4E4C4D",
"T@	c #EFEEEE",
"U@	c #CACBCB",
"V@	c #1F1D1D",
"W@	c #8F8E8F",
"X@	c #FEFDFD",
"Y@	c #E7E6E6",
"Z@	c #8A898A",
"`@	c #0E0C0C",
" #	c #191717",
".#	c #9D9C9C",
"+#	c #707070",
"@#	c #737272",
"##	c #232021",
"$#	c #ABACAB",
"%#	c #D3D2D2",
"&#	c #5F5D5E",
"*#	c #302E2E",
"=#	c #BCBBBB",
"-#	c #FCFDFD",
";#	c #C9C8C8",
">#	c #494747",
",#	c #403E3F",
"'#	c #BEBEBE",
")#	c #333132",
"!#	c #535151",
"~#	c #C7C8C8",
"{#	c #1F1D1E",
"]#	c #636162",
"^#	c #E7E6E7",
"/#	c #0D0A0B",
"(#	c #717071",
"_#	c #EDEEEE",
":#	c #838182",
"<#	c #807E7F",
"[#	c #AFB0B0",
"}#	c #7D7D7D",
"|#	c #545454",
"1#	c #C8C8C8",
"2#	c #E0E1E0",
"3#	c #DAD9D9",
"4#	c #8A8889",
"5#	c #AEADAD",
"6#	c #C8C7C7",
"7#	c #615E5F",
"8#	c #BDBEBE",
"9#	c #D8D9D9",
"0#	c #C6C5C5",
"a#	c #4D494A",
"b#	c #959393",
"c#	c #E9EAE9",
"d#	c #B7B8B8",
"e#	c #A8A9A9",
"f#	c #BDBBBC",
"g#	c #140F10",
"h#	c #8C8A8A",
"i#	c #484848",
"j#	c #747575",
"k#	c #B1B2B2",
"l#	c #AEACAD",
"m#	c #292626",
"n#	c #7C7C7C",
"o#	c #606161",
"p#	c #AEAFAF",
"q#	c #9A9999",
"r#	c #656364",
"s#	c #CFCECF",
"t#	c #DCDDDD",
"u#	c #E3E4E4",
"v#	c #666565",
"w#	c #363636",
"x#	c #454545",
"y#	c #E1E2E2",
"z#	c #4A4A4A",
"A#	c #3A3A3A",
"B#	c #F9F9F9",
"                                                                                                                                ",
"                                                        . + @ # # $ % &                                                         ",
"                                              * = - ; > , ' ' ' ' ' ' ' ) ! ~ { ]                                               ",
"                                        ^ / ( ' ' > _ ( : < < < < < < : [ } | ' ' 1 2 3                                         ",
"                                    4 5 ' ' 6 7 7 < < < < < < < < < < < : : < 7 8 ; 9 ' 8 0                                     ",
"                                ^ a ' ) : b < < < < < < < : : < < 7 7 b c d | e ' ' f | g ' h i                                 ",
"                              j ' k 7 7 < < < : < < 7 b 8 < h l m n o ' ' p q r s t u v ( w | ' x y                             ",
"                          z _ ' ( b : < 7 8 < ( A B ' ' ' C ! D E F G H I J K L M N N O P ; 7 7 , Q R                           ",
"                        S ' > T 8 7 U V ' ' k W X Y Z `  ...+.@.#.$.%.N N &.*.=.N -.;.' ( 7 < < 8 >.' j                         ",
"                      ,.' '.C ' ' n < ).!.~.{.].^./.(.N N _.:.<.[./.$.}.|.N 1.2.3.4.' : 8 < < < < b [ ' 5                       ",
"                    5.' ; h 6.7.8...9.0.a.N b.c.d.e.K f.f.f.f.f.f.1.g.N N h.x i.j.k.l.< m.( 7 < < < 7 b ' i.                    ",
"                  n.' o.< p.N q.N a.#.$.f.f.f.f.f.f.f.f.f.f.f.f.1.r.s.t.u.; v.w.x.y.z.A.B.! ! 7 < < < < 8 ' C.                  ",
"                + ' D.E.F.G.N N [.}.f.f.f.f.f.f.f.f.f.f.f.f.f.f.H.I.J.h K.{ L.M.N.O.{ P.@ { 8 1 < 7 < < < b ' Q.                ",
"              R.' S.T.O.U.7 u.V.W.N b.X.H.Y.0.%.Z.b.N `. +.+f.f.N G.++@+/ #+2 $+Q.k.v./ E.%+x.a m.[ 7 < < 7 : ' @               ",
"              _ P b 8 ~ &+*+=+-+;+>+,+'+].)+!+~+..I {+]+^+/+f.f.(+_+:+<+E.O.M.E [+#+Q.k.O.}+|+<+1+m.[ 7 < < 7 _ ' 2+            ",
"            j ' c < : b 3+a n.4+5+6+o.1+7+8+7+9+o.#+0+a+b+^+f.f.X.c+d+e+# f+y.L.g+E [+[+h+v.&+A.@ - m.: < < < 8 ) b             ",
"          ^ ' ( < < < < 6 i+y.0 f+j+% y.k+x.l+% m+m+. 5 n+o+f.f.p+}.T n D.q+E.w.%+}+h+Q.[+E N./ A.<+x m.7 < < < 8 ' y.          ",
"          a k b < < 7 h r+s+# }+O.M.t+g+/ A.+ x.u+v+E.i+w+N f.f.x+y+#+' } m.! ~ s+z+A.g+Q.[+E v.&+P.y.T 6 7 < < 7 ! >           ",
"        4 ' 7 < < < < 1 t+@ 5.j t+$+[+h+n.0 M.r+g =+s+A+B+N f.f.C+D+E+' 7 7 : 1 >.q+@ y.v.E [+E v.}+z.F+r+G+< < < 8 ' s+        ",
"        5 ) 7 < < 7 >.a $ ,.l.k.[+#+M.P.0 - | r+: T h+H+I+J+$.f.K+L+M+' b < < 7 ( | =+y.$ j Q.[+t+j L.@ 2 1 < < < < _ |         ",
"      ^ ' : < < < ( } N+# &+g+#+#+k.A.0 O+| : 7 [ b P+F+Q+R+S+f.f.N T+' b < < < < 7 m.< y.z.g+Q.#+k.l.= x.T _ 7 < < b ' @+      ",
"      / ' b < < 7 S.- $ L.j E [+h+s+z+7+| < < < : < 5 U.3+U+V+f.f.N W+' < < < < < < b m.i+<+P.k.#+Q.N.}+@+k.S.< < < < | D.      ",
"      ; 6 < < < [ h L.x./ k.#+E O.X+N.| : < < < : [ C.n.i.Y+b.f.f.b.Z+' : < < < < < < 7 `+1+z+E.t+[+t+O. @|+j.} < < < < , .@    ",
"    * ' 7 < < < 6 x y.N+v.E [+k.x.|+G+} 7 < < < : [ 3+F++@@@N f.f.a.#@f : < < < < < < < : m./ w.v.#+#+g+}+@+2 S.< < < 7 ' $@    ",
"    = ' 7 < < < >.t+%+&+M.[+E &+X+u+'.7 < < < < : [ i.N+D.%@L+f.f.a.#@f : < < < < < < < 7 ! j.%+&@t+#+h+l.|+E.; [ < < < *@=@    ",
"    - > < < < ( : F+U.O.t+[+M.-@n.G+; < < < < < : [ i.s+=+;@>@f.f.N ,@' < < < < < < < < < < m.v.@ N.#+Q.j s+-@T._ < < < } 6     ",
"    G+_ < < < _ C.-@s+v.#+#+j w.$+'.7 < < < < < : [ C.j v+'@#.f.f.N )@' b < < < < < < < < < S.x $ 5.E [+M.{ %+q+>.< < < : Q !@  ",
"    > ( < < < >.B.z.{ M.2 k.U.$ 3+! < < < < < < [ [ #+T ~@{@K f. +N ]@' b < < < < < < < < < ( [  @U.h+[+t+/ # M.! < < < < ' ^@  ",
"  . 9 : < < < 6 Q.y.&+E g+$+/@g+7 : < < < < < : ( (@_@> n+:@}.f.<@[@1+) < < < < < < < < < < < S.j @+M.#+E O.P.5.; [ < < < ' =   ",
"  + ' < < < : } j x.l.N.O.}@|@x ' ' A < b b 7 b T.:+' 1@N 2@ +3@N 4@' : < < < < < < < < < < < 1 _@<+j #+Q.v.n.,.8 G+< < < Q j   ",
"  w.' < < < [ ; }+$@/ x._ 5@N 6@Y+7@8@9@' ' ' ' o 0@a@L+e.1.[.N b@m.| 8 < < < < < < < < < < < >.- @+l.#+#+v.,.A.=+} < < < ) #+  ",
"  y.' < < < ( ( 5.U.5.0 g+c@d@N N c.e@f@g@h@i@j@k@l@N m@e.N N n@o@P T < < < < < < < < < < < < >.=@$ / #+#+N.&@U.i.} < < < P p@  ",
"  # ' < < < ( [ 5.U.{ n.q@r@: s@t@N u@M N >@{@N N N N L+$.v@w@Q >.=+: < < < < < < < < < < < < >.o.$ &+Q.#+N.&@$@F.} < < < > x@  ",
"  $ ' < < < [ ; { P.l.v.E.y@z@q+h A@:.N |.C+3@}.B@J C@D@P+1 E@F@i+: < < < < < < < < < < < < < >.1+@+/ #+Q.v.&@A.D.} < < < C $+  ",
"  % ' < < < [ h l.-@l.Q.Q.}+G@* H@I@J@{.a.N ^.K@L@M@N@O@T x D.[ : < < < < < < < < < < < < < < S.x@$ j #+Q.v. @n.i+G+< < < o g+  ",
"  & ' : < < < ! h+y.&+t+$+h+x.x.t+# P@w Q@R@N S@T@P x O+c [ [ < < < < < < < < < < < < < < < < 1 k.$ g+#+E O.$@E.[ ( < < < , F+  ",
"    ) [ < < < >.x@z.}+k.#+E N+x.C.C.L.x.U@r+s@V@N W@X@' } 8 < < < < < < < < < < < < < < < < [ h s+-@k.[+t+/ *+v._ : < < < ' f+  ",
"    ! } < < < ! x *+E.N.#+#+O.@ u+m.i.u+&@P.+@Y@Z@`@ #.#' ' [ 8 < < < < < < < < < < < < < < ! F.%+E.E [+k.}+z._@>.< < < < ' +#  ",
"    ~ | < < < G+8  @n.O.E [+M.y.L.S.( b 3+q+= s+b c @#b.##/ ' ' < 8 < < < < < < < < < < < 7 `+Q.f+j #+#+N.E.*+x ! < < < G+`+    ",
"    { ' < < < < ! N.y.&+k.[+E E.f+a m.: [ 8 v+2 P.$#h %#&#N *#=#' -#b b < < < < < < < < < } : -@A.k.[+t+l.U.&@< ; < < < `+3+    ",
"    ] ' 7 < < < >.1+%+L.N.Q.#+g+@+F+>.( : [ : i+a t+-@k.! ;#>#N ,#Q+' ) c b < < < < < < 7 | E 0 j Q.#+M.&+%+t+>.< < < 7 ' {     ",
"      1 } < < < ; :  @$@/ h+[+Q.}+z+q+| 7 < : [ : T x v.# '#6 E )#N !#4.' L@c b < < < b 1 D.w.n.h+[+t+O.F+# v+! < < < 7 ' .     ",
"      2 Q 7 < < 7 1 _@$ { v.Q.[+k.U.w.=+m.b < < : [ < j.=@}+x.~#6 L.{#N ]#[ ' | c 7 7 ! r+P.%+g+#+#+g+&+y.&+! : < < < >.G+      ",
"      3 ' 7 < < < h < A.$@/ M.#+Q.N.y.y.7 1 7 < < < : [ 7 D.- N+$@/@^#B+/#N (#! ' _#: r+s+f+O.Q.#+t+O.F+%+a >.7 < < b ' s+      ",
"        b `+7 < < 7 1 B.@ E.O.h+[+Q.v.@+# i+`+: 7 < < < [ [ b i.P+ @ @c ( :#N N <#| ' [#}#{ E [+E v.{ $ N.S.: < < < ( Q |#      ",
"        0 ' 8 < < < ( ! { %+}+v.t+[+E v.z.$ 1#'.! < < < < < [ [ 8 3+_@P.E.2#3#C@N :@4#j.G+2 5#h+M.&+|+|+7 r+7 < < b ' $+        ",
"          h | 7 < < 7 ! b x.-@&+N.E [+E g+$@z+&+j.m.>.( < < < : : : 8 C.[+,.P@[ 6#7#N 0.{+} ++8#$@$@$ O+1 7 < < < ( ' R.        ",
"          i ' b < < < 7 1 a <+A./ N.E [+Q.k.L.@ @+v.~ ( S.1 >.>.>.S.m.m.: P+$ z@% 9#0#a#N W.b#8 c#{ d#>.: < < < 8 ' g+          ",
"            x , c < < < < m.1+@ A.&+v.t+#+#+t+N.,.<+<+n.v._@- =@=@1+q+k.N+y.f+@+i * e#[ f#~+N g#h#a ' ' b 8 < b m.*@            ",
"            i#9 >.b < < < [ 1 - <+|+}+j k.Q.[+#+t+N.{ $@@+<+$ @+@+@+$ @+|+L.N.k.N.E.+ j#k#c l#m#N L  .o.' P T : ' n#            ",
"              R ' [ 7 < < 7 [ m.O+y.y.L.l.g+h+#+[+#+E h+M.v.l.&+/ l.j g+k.t+[+$+$+t+&+-@. o#p#: q#e.N b.r#s#1 ' t+              ",
"                j ' b < < < 7 : 1 T F+@ = }+O.g+h+E [+[+[+#+#+Q.Q.#+[+[+[+#+Q.t+k.v./ ,.z++ % N+t#T 4#W.N 7#' c                 ",
"                  O+' 8 < < < < 7 6 } 2 x.@+ @}+/ v.M.h+E Q.#+#+#+#+#+Q.t+M.v.l.}+s+y.y.M.i+8 [+x./ u#O+v#;#) w#                ",
"                    i.' b 7 < < < 7 G+m.T k.|+@+|+s+}+/ l.v.v.N.N.v.v.O./ }+E.A.%+# / a S.! < i+~ r *+p@' ' x#                  ",
"                      a ' : 7 < < < < 7 _ S.j.2 E.-@z.# P.n.,.&@F+&@n.$@*+z.*+&@t+v+! 6 : < : [ < j.o.G+y#z#                    ",
"                        Q.' _ 8 < < < < < < r+S.; v+x@M.{ ,.= $@$@A. @E.v._@x < S.! : 7 < < < < < ( ' b A#                      ",
"                          @ ' B#8 7 < < < < < < [ _ S.! ; 8 =+i.F.D.i+[ r+>.! ; < < < < < < < c m.' E                           ",
"                            2+b ' ! 8 < < < < < < < < < [ G+h } } } G+( : < < < < < < < < b ( ' *@n#                            ",
"                                y.> ' r+b < < < < < < < < < < < < < < < < < < < < < < b ( ' ' g+                                ",
"                                    F+| ' | : 7 < < < < < < < < < < < < < < < < 7 7 >.' 9 $+R.                                  ",
"                                        @+=+, ' *@} : < < < < < < < < < < < G+`+' ' G+s+|#                                      ",
"                                            .@$@=@6 Q ' ' Q ) > > C o , ' ' `+3+5..                                             ",
"                                                    !@^@= j #+p@x@$+g+F+f+m+                                                    ",
"                                                                                                                                "};
