/* XPM */
static char * bitcoin16_xpm[] = {
"16 16 124 2",
"  	c None",
". 	c #808080",
"+ 	c #A0A0A0",
"@ 	c #A7A7A7",
"# 	c #9C9D9C",
"$ 	c #DBDBDB",
"% 	c #FFFFFF",
"& 	c #EAE9EA",
"* 	c #B4B3B4",
"= 	c #B2B0B1",
"- 	c #BDBDBD",
"; 	c #535353",
"> 	c #C3C1C1",
", 	c #979595",
"' 	c #595556",
") 	c #3A3637",
"! 	c #312E2F",
"~ 	c #2C2829",
"{ 	c #424041",
"] 	c #8D8C8C",
"^ 	c #555555",
"/ 	c #FDFEFE",
"( 	c #A3A1A2",
"_ 	c #1F1C1D",
": 	c #201D1E",
"< 	c #2A2728",
"[ 	c #000000",
"} 	c #6A6868",
"| 	c #D7D8D8",
"1 	c #B3B4B4",
"2 	c #AAAAAA",
"3 	c #F2F2F2",
"4 	c #B8B8B8",
"5 	c #BBBCBC",
"6 	c #B2B2B2",
"7 	c #CACACA",
"8 	c #D6D6D6",
"9 	c #1B1718",
"0 	c #6C6969",
"a 	c #F4F4F4",
"b 	c #B6B6B6",
"c 	c #9D9D9D",
"d 	c #ABABAB",
"e 	c #C5C5C5",
"f 	c #FEFEFE",
"g 	c #CECECE",
"h 	c #9E9E9E",
"i 	c #F0F0F0",
"j 	c #F5F5F5",
"k 	c #383435",
"l 	c #484545",
"m 	c #E9E9E9",
"n 	c #B7B7B7",
"o 	c #9A9A9A",
"p 	c #C7C7C7",
"q 	c #7D7D7D",
"r 	c #B3B3B3",
"s 	c #ACACAC",
"t 	c #F0F1F0",
"u 	c #242122",
"v 	c #3E3A3B",
"w 	c #ECECEC",
"x 	c #D5D5D5",
"y 	c #A2A2A2",
"z 	c #898989",
"A 	c #999999",
"B 	c #898888",
"C 	c #8D8B8C",
"D 	c #C3C2C3",
"E 	c #787677",
"F 	c #060304",
"G 	c #A6A4A5",
"H 	c #F9F9F9",
"I 	c #E1E1E1",
"J 	c #E0E0E0",
"K 	c #B4B4B4",
"L 	c #A8A8A8",
"M 	c #F8F8F8",
"N 	c #A5A5A5",
"O 	c #939393",
"P 	c #545252",
"Q 	c #252223",
"R 	c #5C5A5A",
"S 	c #DCDCDC",
"T 	c #A6A6A6",
"U 	c #7F7F7F",
"V 	c #DEDFDE",
"W 	c #C0BFBF",
"X 	c #A4A4A4",
"Y 	c #BCBBBB",
"Z 	c #DFDFDF",
"` 	c #D4D4D4",
" .	c #B1B1B1",
"..	c #8B8B8B",
"+.	c #9B9B9B",
"@.	c #BDBEBE",
"#.	c #FAFAFA",
"$.	c #E0E1E1",
"%.	c #989898",
"&.	c #858383",
"*.	c #B5B4B4",
"=.	c #CBCBCB",
"-.	c #BFBFBF",
";.	c #DEDEDE",
">.	c #F1F1F1",
",.	c #C6C6C5",
"'.	c #807F7F",
").	c #7F7D7D",
"!.	c #888787",
"~.	c #C8C8C8",
"{.	c #F3F3F3",
"].	c #A1A1A1",
"^.	c #BFC0C0",
"/.	c #868686",
"(.	c #6F6D6D",
"_.	c #888686",
":.	c #E3E3E3",
"<.	c #C6C6C6",
"[.	c #CDCDCD",
"}.	c #D8D8D8",
"|.	c #454444",
"1.	c #C4C4C4",
"2.	c #F7F7F7",
"3.	c #CECDCD",
"            . + @ #             ",
"        $ % % % & * = -         ",
"    ; > , ' ) ! ~ { ] % % ^     ",
"    / ( _ : < [ } | 1 2 3 %     ",
"  4 % 5 6 7 8 9 0 a b c d % e   ",
"  f g h 4 i j k l % m n o p %   ",
"q % r s t % % u v % w x y 6 % z ",
"A f 6 B C D E F G H I J K L M N ",
"o % 6 O P Q R | % S I J K L M T ",
"U % K 2 V W X Y Z j w ` X  .% ..",
"  % 7 +.@.#.$.%.&.*.i =.+.e %   ",
"  -.% s c 4 ;.>.,.'.).!.b % ~.  ",
"    % {.d o ].b ^.6 /.(._.:.    ",
"    ^ % % <.6 L L K [.% }.|.    ",
"        1.% % M 2.% % 3.        ",
"            z N T ..            "};
