/* XPM */
static char * bitcoin32_xpm[] = {
"32 32 243 2",
"  	c None",
". 	c #BABABA",
"+ 	c #D7D7D7",
"@ 	c #E6E6E6",
"# 	c #EEEEEE",
"$ 	c #EFEFEF",
"% 	c #E8E8E8",
"& 	c #DBDBDB",
"* 	c #BFBFBF",
"= 	c #B3B3B3",
"- 	c #F2F2F2",
"; 	c #FFFFFF",
"> 	c #FAFAFA",
", 	c #EBEBEB",
"' 	c #F0F0F0",
") 	c #F5F5F5",
"! 	c #F6F5F5",
"~ 	c #B9B9B9",
"{ 	c #FBFCFB",
"] 	c #FAFBFB",
"^ 	c #DADADA",
"/ 	c #CCCBCB",
"( 	c #B9B8B8",
"_ 	c #A19FA0",
": 	c #716E6F",
"< 	c #2A2728",
"[ 	c #6B6869",
"} 	c #B2B2B2",
"| 	c #E1E2E2",
"1 	c #FDFEFE",
"2 	c #E3E2E3",
"3 	c #BEBDBD",
"4 	c #929091",
"5 	c #7A7878",
"6 	c #615E5F",
"7 	c #494646",
"8 	c #302D2D",
"9 	c #252122",
"0 	c #030000",
"a 	c #000000",
"b 	c #413F3F",
"c 	c #D6D6D6",
"d 	c #F1F2F2",
"e 	c #E0E0E0",
"f 	c #DEDDDD",
"g 	c #575455",
"h 	c #555253",
"i 	c #3B3738",
"j 	c #161213",
"k 	c #010000",
"l 	c #0A0607",
"m 	c #0D080A",
"n 	c #2B2728",
"o 	c #747273",
"p 	c #AAAAAA",
"q 	c #C2C3C3",
"r 	c #C7C8C7",
"s 	c #DDDDDD",
"t 	c #F6F6F6",
"u 	c #929191",
"v 	c #040000",
"w 	c #0A0506",
"x 	c #140F10",
"y 	c #171314",
"z 	c #1E1A1B",
"A 	c #120E0F",
"B 	c #3F3C3D",
"C 	c #C4C4C4",
"D 	c #D4D5D5",
"E 	c #ABABAB",
"F 	c #9A9A9A",
"G 	c #9F9F9F",
"H 	c #CCCCCC",
"I 	c #ECECEC",
"J 	c #DCDCDC",
"K 	c #E9E9E9",
"L 	c #A1A1A1",
"M 	c #D1D1D1",
"N 	c #D0D0D0",
"O 	c #818081",
"P 	c #767474",
"Q 	c #787677",
"R 	c #716F70",
"S 	c #6E6C6D",
"T 	c #8D8B8C",
"U 	c #332E2F",
"V 	c #020000",
"W 	c #524F50",
"X 	c #C8C9C8",
"Y 	c #A2A2A2",
"Z 	c #B6B6B6",
"` 	c #A6A6A6",
" .	c #939393",
"..	c #E2E2E2",
"+.	c #EDEDED",
"@.	c #8E8F8F",
"#.	c #C6C7C7",
"$.	c #B5B6B6",
"%.	c #AFB0B0",
"&.	c #B9BABA",
"*.	c #CBCDCC",
"=.	c #504C4D",
"-.	c #2A2627",
";.	c #D5D5D5",
">.	c #BBBBBB",
",.	c #9B9B9B",
"'.	c #A8A8A8",
").	c #C1C1C1",
"!.	c #AEAEAE",
"~.	c #CBCBCB",
"{.	c #DEDEDE",
"].	c #E1E1E1",
"^.	c #E5E5E5",
"/.	c #A4A4A4",
"(.	c #C6C6C6",
"_.	c #ADADAD",
":.	c #CECFCF",
"<.	c #646162",
"[.	c #C0C0C0",
"}.	c #9C9C9C",
"|.	c #DFDFDF",
"1.	c #E4E4E4",
"2.	c #F9F9F9",
"3.	c #C9C9C9",
"4.	c #979797",
"5.	c #BEBEBE",
"6.	c #ACACAC",
"7.	c #989898",
"8.	c #F1F1F1",
"9.	c #CFD0D0",
"0.	c #817F80",
"a.	c #B1AFB0",
"b.	c #FBFCFC",
"c.	c #9D9D9D",
"d.	c #B8B8B8",
"e.	c #FEFEFE",
"f.	c #A3A3A3",
"g.	c #999999",
"h.	c #D1D2D2",
"i.	c #939292",
"j.	c #070304",
"k.	c #A7A6A7",
"l.	c #B4B4B4",
"m.	c #D8D8D8",
"n.	c #A0A0A0",
"o.	c #C2C2C2",
"p.	c #BDBDBD",
"q.	c #B7B7B7",
"r.	c #D9D9D9",
"s.	c #120D0E",
"t.	c #A8A7A7",
"u.	c #9E9E9E",
"v.	c #CECECE",
"w.	c #B1B1B1",
"x.	c #A5A5A5",
"y.	c #D2D2D2",
"z.	c #E9EAEA",
"A.	c #7D7B7C",
"B.	c #0B0708",
"C.	c #B5B4B4",
"D.	c #E7E7E7",
"E.	c #E3E3E3",
"F.	c #FCFCFC",
"G.	c #F9FAFA",
"H.	c #FAFBFA",
"I.	c #2F2B2C",
"J.	c #272324",
"K.	c #AFAFAF",
"L.	c #A9A9A9",
"M.	c #A7A7A7",
"N.	c #454242",
"O.	c #3A3737",
"P.	c #BDBBBC",
"Q.	c #BBBABA",
"R.	c #878585",
"S.	c #232020",
"T.	c #999A9A",
"U.	c #949494",
"V.	c #494647",
"W.	c #262223",
"X.	c #282324",
"Y.	c #807E7F",
"Z.	c #FCFDFC",
"`.	c #969696",
" +	c #D0D1D1",
".+	c #4B4949",
"++	c #363233",
"@+	c #CFCECE",
"#+	c #FCFDFD",
"$+	c #B0B0B0",
"%+	c #C7C7C7",
"&+	c #D2D3D3",
"*+	c #858484",
"=+	c #5A5657",
"-+	c #9A9798",
";+	c #EAEAEA",
">+	c #F8F8F8",
",+	c #CDCDCD",
"'+	c #ABAAAB",
")+	c #656262",
"!+	c #686566",
"~+	c #989696",
"{+	c #C3C3C3",
"]+	c #D3D3D3",
"^+	c #F4F4F4",
"/+	c #D5D6D6",
"(+	c #676364",
"_+	c #A09F9F",
":+	c #F7F7F7",
"<+	c #FEFFFF",
"[+	c #B5B5B5",
"}+	c #BCBCBC",
"|+	c #959494",
"1+	c #5D5B5C",
"2+	c #636161",
"3+	c #9E9C9D",
"4+	c #F4F5F5",
"5+	c #9C9B9C",
"6+	c #CCCDCC",
"7+	c #625F5F",
"8+	c #5D595A",
"9+	c #A3A2A2",
"0+	c #CDCECD",
"a+	c #CBCCCC",
"b+	c #D4D4D4",
"c+	c #C5C5C5",
"d+	c #615F5F",
"e+	c #727171",
"f+	c #9F9E9F",
"g+	c #959595",
"h+	c #AAABAB",
"i+	c #636263",
"j+	c #4A4848",
"k+	c #525051",
"l+	c #B1B0B1",
"m+	c #CACACA",
"n+	c #8B8B8B",
"o+	c #B7B7B6",
"p+	c #737273",
"q+	c #171516",
"r+	c #908D8E",
"s+	c #CFCFCF",
"t+	c #C4C3C4",
"                                                                ",
"                        . + @ # $ % & *                         ",
"                  = - ; > # , ' ) ; ; ; ; ! ~                   ",
"                ; ; { ; ; ] # ^ / ( _ : < [ ; ; }               ",
"            | ; 1 2 3 4 5 6 7 8 9 0 a a b c d e ; @             ",
"          ^ f g h i j a a k l j m n o p q r s , & ; %           ",
"        ^ t u n a a v w x y z A B C D * E F G H I J ; K         ",
"      L ; M N ~ O P Q R S T U V W X F Y Z * `  .C I & ; .       ",
"      ; ..+.c @.` #.$.%.&.*.=.a -.;...>.,.'.).!. .~., {.;       ",
"    } ; ].^./.` (._.F c K :.<.a j [.; ' + }./.).'.}.|.1.2.3.    ",
"    - 1.+.[.4.5.6.7.& 8.].9.0.w m a.b.{.I ..c.` * F d.+.|.e.    ",
"    ; ].e f.E ~ g.N # |.^.h.i.j j.k.1 |.s , & ,.l.} c.m.^.; n.  ",
"  . > , o.7.p.Y q.8.{.|.@ r.i.s.j.t.e.|.|.{.8.* u.5.g.~ I - v.  ",
"  m.+.K w.L p.x.y.% {.].s z.A.k B.C.> |.|.|.@ r.L d.` E @ % D.  ",
"  D.K E.p p w.x.F.; G.H.; 3.I.a J.@ K |.|.|.e 1.6.!.K.x.J ^.)   ",
"  $ % {.L.f.M.N.O.T P.Q.R.m a S.5.G.s |.|.|.|.K = '.l.L + @ 2.  ",
"  $ % s L.Y T.U.V.a a W.X.O.Y.^ Z.s |.|.|.|.|.K = M.l.L + @ 2.  ",
"  % % ..L.!.6.`. +x..+++@+; #+K s |.|.|.|.|.e ^._._.$+/.J @ )   ",
"  ^ I % $+Y 5.M.%+&+ +*+=+-+, ; e s |.|.|.|.1.& f.Z '.p 1.D.;+  ",
"  * >+, * 7.p.n.[.t ,+D '+)+!+~+- ; |.s |.{.' {+c.5.,.Z , ' ]+  ",
"    ; ..s L !.Z ,.m.^+|.N /+G 6 (+_+:+<+{.D.].u.$+[+,.]+@ ; M.  ",
"    t ..+.}+7.* M.}...+.@ |.M ]+|+1+2+3+; 4+5+Y ).}.= I |.;     ",
"    5.e.E.].u.` )./.c.^ 8.% K J  +6+U.7+8+9+0+a+x.g.^ @ ^+b+    ",
"      ; e , H  .!.).` }.* m.1.I 8.^ c+w.d+g e+f+{+{.I J ;       ",
"      } ; & I C  .'.[.l.u.L 6.= = = p g+h+p i+j+k+l+' e.m+      ",
"        @ ; J I ~.}.g.} * d.!.'.'._.q.{+d.n+7.o+p+q+r+;         ",
"          D.; & , {.d.c.g.` K.= l.$+'.,.}.. & b+s+%+t+          ",
"            ;+; {.1.+.+ ~ E x.L L /.p q.]+I D.1.; ^+            ",
"              . ; > |.1.I ^.J + + & 1., @ {.) ; ,+              ",
"                  3.e.; 8.D.@ @ @ @ D.$ ; ; ]+                  ",
"                        v.D.^+2.2.t ;+y.                        ",
"                                                                "};
